<?xml version="1.0" encoding="UTF-8"?>
<svg width="110" height="110" version="1.1" viewBox="0 0 16.14 16.356" xmlns="http://www.w3.org/2000/svg">
 <g transform="translate(-94.601 -121.05)">
  <path d="m97.123 121.05h11.096a2.5217 2.5217 0 0 1 2.5218 2.5217v11.312a2.5217 2.5217 0 0 1-2.5218 2.5218h-11.096a2.5217 2.5217 0 0 1-2.5217-2.5218v-11.312a2.5217 2.5217 0 0 1 2.5217-2.5217z" fill="#e20613"/>
  <path d="m96.807 134.98a0.18283 0.18283 0 0 1-0.0426-0.0132 0.098425 0.098425 0 0 1-0.02857-0.0172 0.20082 0.20082 0 0 1-0.02646-0.0426c-0.01164-0.0217-0.02328-0.046-0.03545-0.073a0.84349 0.84349 0 0 1-0.05292-0.18362q-0.01932-0.10583-0.03334-0.2831-0.0082-0.10954-0.0082-0.27385v-0.0669q0-0.20902 0.01032-0.34898 4e-3 -0.0548 0.01005-0.13229 4e-3 -0.055 0.0079-0.10002a2.8138 2.8138 0 0 1 0.04895-0.37941c0.0069-0.0336 0.01323-0.0685 0.01931-0.10583 0.0061-0.0373 0.01455-0.09 0.02646-0.1614q0.0061-0.0447 0.01614-0.0984 0.01005-0.0537 0.01826-0.0902c0.0069-0.0243 0.01402-0.0529 0.02169-0.0873 0.0077-0.0344 0.01402-0.0643 0.01932-0.0913q0.01826-0.0873 0.04048-0.16034a0.39688 0.39688 0 0 1 0.04075-0.0995 0.10583 0.10583 0 0 1 0.0852-0.0384 0.13838 0.13838 0 0 1 0.02434 2e-3 0.18918 0.18918 0 0 1 0.12382 0.0648l4e-3 4e-3a0.1442 0.1442 0 0 1 0.0217 0.0304 0.096308 0.096308 0 0 1 0.0061 0.0447c0 0.0204-0.0034 0.0511-0.0082 0.0923-0.0048 0.0413-0.01191 0.0984-0.0217 0.17145l-4e-3 0.0325q-0.01217 0.0852-0.02434 0.16563-0.01217 0.0804-0.01852 0.11854c-0.0042 0.0243-0.0082 0.0505-0.01217 0.0794-4e-3 0.0288-0.0066 0.0508-0.0082 0.0701s-0.0056 0.0357-0.0082 0.0548c-0.0026 0.019-0.0056 0.0344-0.0082 0.0466s-0.0061 0.0328-0.01005 0.0619c-4e-3 0.0291-0.0074 0.0606-0.01005 0.0945-0.0026 0.0339-0.0056 0.0601-0.0082 0.0831a0.33814 0.33814 0 0 1-0.0061 0.0405 0.24606 0.24606 0 0 0-0.0061 0.0397c-0.0026 0.0236-0.0048 0.0529-0.0061 0.0841s-0.0056 0.0701-0.0082 0.10953c-0.0026 0.0394-0.0056 0.072-0.0082 0.0974q-0.01005 0.10583-0.01826 0.28416-0.0082 0.17833-0.0082 0.31248 0 0.15875 0.01032 0.28416a0.37544 0.37544 0 0 0 0.02434 0.13996 0.021696 0.021696 0 0 0 0.01005 2e-3 0.16298 0.16298 0 0 0 0.0852-0.0503 1.4023 1.4023 0 0 1 0.13229-0.0987q0.09366-0.064 0.17859-0.11483 0.14208-0.0831 0.20717-0.11985 0.06509-0.0368 0.12779-0.0648a0.74533 0.74533 0 0 1 0.08334-0.0355 0.18865 0.18865 0 0 1 0.05874-9e-3q0.08943 0 0.08943 0.0529a0.052917 0.052917 0 0 1-4e-3 0.0217 0.064029 0.064029 0 0 1-0.01931 0.0217 0.38867 0.38867 0 0 1-0.04683 0.0304q-0.03149 0.0183-0.08625 0.0487a2.2783 2.2783 0 0 0-0.34872 0.22464q-0.06906 0.063-0.31459 0.25585-0.03043 0.0222-0.05768 0.0405a0.4617 0.4617 0 0 1-0.03969 0.0243 0.19473 0.19473 0 0 1-0.06906 0.0151h-0.04471a0.44106 0.44106 0 0 1-0.09075-6e-3zm0.9742-0.42333a1.1131 1.1131 0 0 1-0.04471-0.21617 1.8211 1.8211 0 0 1-0.01455-0.19182 1.0811 1.0811 0 0 1 0.0164-0.18865q0.02434-0.15637 0.12568-0.19076a0.20241 0.20241 0 0 0 0.03043-0.0103 0.064558 0.064558 0 0 0 0.01826-0.01 0.10372 0.10372 0 0 0 9e-3 -0.0265c0.0034-0.0135 0.0063-0.0291 9e-3 -0.0466a0.77444 0.77444 0 0 1 0.0762-0.24342 0.31882 0.31882 0 0 1 0.127-0.14419 0.26458 0.26458 0 0 1 0.11165-0.0265 0.23627 0.23627 0 0 1 0.16245 0.069 0.78026 0.78026 0 0 1 0.17251 0.54796v0.0233q0 0.13785 0.02434 0.13785a0.17674 0.17674 0 0 0 0.03651-0.0304q0.03254-0.0304 0.07514-0.077l0.01217-0.0122a0.63976 0.63976 0 0 1 0.04974-0.0529 0.21405 0.21405 0 0 1 0.05583-0.0415 0.099748 0.099748 0 0 1 0.03651-0.0111 0.046038 0.046038 0 0 1 0.03043 0.0122 0.0381 0.0381 0 0 1 0.0082 0.0243 0.092604 0.092604 0 0 1-0.0019 0.0183 0.1352 0.1352 0 0 1-0.02434 0.0505q-0.10134 0.14023-0.1561 0.20294a0.64294 0.64294 0 0 1-0.10583 0.0995c-0.01905 0.0148-0.03493 0.0283-0.04762 0.0405a0.097102 0.097102 0 0 0-0.0217 0.0243c-0.0013 6e-3 -0.0045 0.0169-9e-3 0.0344s-0.0098 0.0378-0.01534 0.0609a1.4785 1.4785 0 0 1-0.08414 0.25374 0.635 0.635 0 0 1-0.10239 0.17251 0.27437 0.27437 0 0 1-0.18521 0.0855 0.26458 0.26458 0 0 1-0.03254-2e-3 0.36671 0.36671 0 0 1-0.20399-0.11271 0.59399 0.59399 0 0 1-0.13732-0.22225zm0.60272-0.41407a0.31168 0.31168 0 0 0 0.02222-0.0937q0.01217-0.0794 0.02037-0.16642c0.0013-0.0161 0.0021-0.0325 0.0021-0.0487a0.96335 0.96335 0 0 0-0.02037-0.19685 0.45244 0.45244 0 0 0-0.06906-0.18257c-0.0082-8e-3 -0.01614-0.0156-0.02434-0.0222a0.035719 0.035719 0 0 0-0.01826-0.0103q-0.0426 0-0.08308 0.11165a0.71437 0.71437 0 0 0-0.0426 0.23337 0.68104 0.68104 0 0 0 0.02328 0.15742 0.60007 0.60007 0 0 0 0.05292 0.14526 0.18521 0.18521 0 0 0 0.06377 0.0669 0.11827 0.11827 0 0 0 0.04762 0.0164 0.036248 0.036248 0 0 0 0.02646-0.0101zm-0.1868 0.47625a0.73369 0.73369 0 0 0 0.10583-0.19685 0.62944 0.62944 0 0 0 0.02434-0.068 0.12965 0.12965 0 0 0 4e-3 -0.0233 0.023548 0.023548 0 0 0-0.0082-0.0204 0.11615 0.11615 0 0 0-0.0426-0.0182 0.55562 0.55562 0 0 1-0.05292-0.0183c-0.0209-8e-3 -0.04022-0.0161-0.05768-0.0243a0.14526 0.14526 0 0 0-0.05741-0.0206 0.01614 0.01614 0 0 0-0.01455 6e-3 0.11245 0.11245 0 0 0-0.01005 0.0609c0 0.0135 0 0.0299 0.0021 0.0487a0.58208 0.58208 0 0 0 0.05477 0.28813 0.02831 0.02831 0 0 0 0.01826 0.0101h4e-3a0.075142 0.075142 0 0 0 0.03096-0.0241zm1.9788 0.20902a0.6694 0.6694 0 0 1-0.063-0.204 1.4716 1.4716 0 0 1-0.0161-0.21166 0.81174 0.81174 0 0 0-5e-3 -0.13097c-3e-3 -0.0101-7e-3 -0.0151-0.0111-0.0151-4e-3 0-0.0169 8e-3 -0.0304 0.0243a0.46884 0.46884 0 0 0-0.06905 0.22701 0.29104 0.29104 0 0 1-0.02223 0.10345 0.13388 0.13388 0 0 1-0.05874 0.0529 0.20346 0.20346 0 0 1-0.03545 0.0132 0.11933 0.11933 0 0 1-0.02646 3e-3 0.17833 0.17833 0 0 1-0.02434-2e-3 0.12171 0.12171 0 0 1-0.10769-0.073 1.0607 1.0607 0 0 1-0.04868-0.4019q0-0.1868 0.01826-0.44979 4e-3 -0.0587 4e-3 -0.11351c0-0.0265 0-0.0529-0.0021-0.077a0.24156 0.24156 0 0 0-0.01799-0.10584 0.013758 0.013758 0 0 0-0.01005-4e-3q-0.02223 0-0.06297 0.0569a0.90884 0.90884 0 0 0-0.1016 0.17674 3.3602 3.3602 0 0 0-0.16246 0.76094 1.4883 1.4883 0 0 1-0.05477 0.30851 0.21325 0.21325 0 0 1-0.19076 0.0812 0.18362 0.18362 0 0 1-0.1188-0.0365 0.44027 0.44027 0 0 1-0.09843-0.13837 0.92975 0.92975 0 0 1-0.06191-0.13785 1.3457 1.3457 0 0 1-0.04366-0.16246 2.2738 2.2738 0 0 1-0.04154-0.25982q-0.0071-0.0915-0.0071-0.15028 0-0.0691 0.0061-0.14393a0.70273 0.70273 0 0 1 0.04366-0.23442 0.14261 0.14261 0 0 1 0.10451-0.0863 0.20902 0.20902 0 0 1 0.04075-4e-3 0.3384 0.3384 0 0 1 0.15399 0.0408 0.22013 0.22013 0 0 1 0.12568 0.12382 0.2585 0.2585 0 0 1 0 0.0447q0 0.0325-5e-3 0.0691-0.01006 0.0992-0.01217 0.17145-0.0021 0.0722-0.0016 0.10584a0.73898 0.73898 0 0 0 4e-3 0.0852l0.0061 0.063 0.01641-0.0325c4e-3 -0.0109 0.01085-0.0331 0.02037-0.0669 0.0095-0.0339 0.01958-0.0717 0.03043-0.11377a1.6904 1.6904 0 0 1 0.20002-0.50271q0.12224-0.19182 0.1987-0.21299a0.48234 0.48234 0 0 1 0.10054-0.0217 0.20002 0.20002 0 0 1 0.16642 0.1217 1.1681 1.1681 0 0 1 0.09551 0.53182q0 0.0974 3e-3 0.1442a0.10901 0.10901 0 0 0 0.01 0.0529 0.020638 0.020638 0 0 0 0.0111 6e-3 0.039688 0.039688 0 0 0 0.0204-8e-3 0.23654 0.23654 0 0 1 0.0569-0.0304 0.14314 0.14314 0 0 1 0.0426-6e-3 0.25453 0.25453 0 0 1 0.0304 2e-3 0.21511 0.21511 0 0 1 0.17251 0.0913 0.65775 0.65775 0 0 1 0.0529 0.31459 1.4348 1.4348 0 0 0 0.0122 0.17039 0.19791 0.19791 0 0 0 0.0265 0.0894 0.011906 0.011906 0 0 0 0.0101 6e-3h4e-3a0.045244 0.045244 0 0 0 0.0161-0.0143 0.66331 0.66331 0 0 0 0.0751-0.15531q0.0468-0.12065 0.0945-0.26458 0.0476-0.14393 0.0794-0.24262c0.01-0.0265 0.0169-0.0487 0.0222-0.0648q0.0204-0.0627 0.0344-0.10583a0.35825 0.35825 0 0 1 0.0182-0.0487 0.064029 0.064029 0 0 1 0.0204-0.0132 0.061912 0.061912 0 0 1 0.0243-5e-3q0.0407 0 0.0407 0.0466a0.15187 0.15187 0 0 1-4e-3 0.0325c-1e-3 4e-3 -5e-3 0.0177-0.0111 0.0405-6e-3 0.0228-0.0145 0.0529-0.0265 0.0873q-0.0304 0.10953-0.063 0.23548a4.0696 4.0696 0 0 1-0.16219 0.53578q-0.077 0.16642-0.14711 0.16854l-0.0741 2e-3a0.24924 0.24924 0 0 1-0.21564-0.1397zm1.3906 0.34395q-0.1442-0.0405-0.16219-0.13599a0.84667 0.84667 0 0 1-0.0183-0.14605 0.55271 0.55271 0 0 1 0.0243-0.16246 1.016 1.016 0 0 1 0.10847-0.2577 1.2451 1.2451 0 0 1 0.19183-0.23336q0.0505-0.0505 0.0841-0.0892a0.23178 0.23178 0 0 0 0.0376-0.0505 0.83714 0.83714 0 0 0 5e-3 -0.13494 1.4179 1.4179 0 0 0-0.0204-0.22119 0.34396 0.34396 0 0 0-0.0529-0.15399 0.087048 0.087048 0 0 0-0.059-0.0386 0.14499 0.14499 0 0 0-0.0873 0.0447 0.98928 0.98928 0 0 0-0.22728 0.43418q-0.0225 0.0712-0.0405 0.15743-0.018 0.0863-0.0468 0.24262-0.0122 0.0669-0.0217 0.10345a0.20452 0.20452 0 0 1-0.0204 0.0548 0.097367 0.097367 0 0 1-0.0294 0.0304 0.14393 0.14393 0 0 1-0.0812 0.0204h-0.01a0.23257 0.23257 0 0 1-0.10134-0.0243 0.2069 0.2069 0 0 1-0.0638-0.0529 0.635 0.635 0 0 1-0.0598-0.10239 1.9992 1.9992 0 0 1-0.20717-0.66146 4.6688 4.6688 0 0 1-0.0344-0.47784 2.3831 2.3831 0 0 1 0.0426-0.46064q0.0161-0.0751 0.0283-0.13494 0.0122-0.0598 0.0161-0.0794a0.17171 0.17171 0 0 1 0.0326-0.0569 0.14208 0.14208 0 0 1 0.0487-0.0386 0.16325 0.16325 0 0 1 0.0548-8e-3 0.20638 0.20638 0 0 1 0.0265 2e-3 0.36565 0.36565 0 0 1 0.0955 0.0243 0.18521 0.18521 0 0 1 0.11986 0.19447 0.51329 0.51329 0 0 1-0.0145 0.11165 2.4572 2.4572 0 0 0-0.0304 0.41196v0.0569q6e-3 0.2704 0.0243 0.4527 0.0161 0.16033 0.0265 0.23071a0.21828 0.21828 0 0 0 0.0233 0.0841 0.016669 0.016669 0 0 0 0.0122 8e-3h2e-3c4e-3 -1e-3 0.01-0.01 0.0161-0.0264 7e-3 -0.0167 0.0153-0.0402 0.0265-0.0741q0.18257-0.52149 0.38973-0.60854a0.29607 0.29607 0 0 1 0.11377-0.0243 0.22992 0.22992 0 0 1 0.12171 0.0344 0.52255 0.52255 0 0 1 0.17569 0.18257 0.82735 0.82735 0 0 1 0.0963 0.22754 0.62812 0.62812 0 0 0 0.0233 0.0741c6e-3 0.0145 0.0124 0.0217 0.0193 0.0217a0.37042 0.37042 0 0 0 0.0548-0.0172l0.11774-0.0415a1.469 1.469 0 0 1 0.15875-0.0505 0.31009 0.31009 0 0 1 0.0458-6e-3 0.056092 0.056092 0 0 1 0.0447 0.0161 0.052917 0.052917 0 0 1 0.0132 0.0325 0.0381 0.0381 0 0 1-0.0111 0.0304l-0.0426 0.0193q-0.0347 0.0151-0.0812 0.0333-0.10372 0.0405-0.15875 0.0638c-0.037 0.0156-0.0638 0.0264-0.0794 0.0357a0.13229 0.13229 0 0 0-0.0326 0.0204 0.044185 0.044185 0 0 0-0.0122 0.0132 0.0381 0.0381 0 0 0-4e-3 0.0193v0.0569q0 0.0365 2e-3 0.0995v0.0386a1.5153 1.5153 0 0 1-0.0447 0.34713 1.0462 1.0462 0 0 1-0.16854 0.37359 0.4355 0.4355 0 0 1-0.15637 0.13494 0.36698 0.36698 0 0 1-0.15425 0.0376 0.42704 0.42704 0 0 1-0.0913-0.0111zm0.11589-0.26458q0.0145-0.0243 0.0304-0.0577a0.38126 0.38126 0 0 0 0.0243-0.0619c6e-3 -0.0177 0.0114-0.036 0.0172-0.0548 6e-3 -0.0188 0.0111-0.0344 0.0151-0.0466a0.8808 0.8808 0 0 0 0.0265-0.0913q0.0132-0.0569 0.0222-0.11059a0.52917 0.52917 0 0 0 9e-3 -0.0762q-2e-3 -0.0529-0.0183-0.0529a0.023812 0.023812 0 0 0-0.0161 8e-3 0.37042 0.37042 0 0 0-0.0759 0.10954 1.2618 1.2618 0 0 0-0.0794 0.1868 0.5887 0.5887 0 0 0-0.0344 0.18282 0.25612 0.25612 0 0 0 0.0111 0.1106 0.035719 0.035719 0 0 0 0.0151 9e-3q0.018 0 0.0529-0.055zm1.5751 0.0405a1.1533 1.1533 0 0 1-0.0365-0.29633 1.6155 1.6155 0 0 1 0.0222-0.26194q4e-3 -0.0243 0.0103-0.0587c3e-3 -0.0177 5e-3 -0.0339 8e-3 -0.0487s6e-3 -0.0355 0.0111-0.0577c5e-3 -0.0222 9e-3 -0.0421 0.0132-0.0598q0.0265-0.10346 0.0497-0.204 0.0233-0.10054 0.0349-0.16404a0.62865 0.62865 0 0 0 0.0122-0.077v-2e-3a0.011112 0.011112 0 0 0-8e-3 -2e-3h-6e-3a0.18098 0.18098 0 0 0-0.0243 0.0101 0.084402 0.084402 0 0 0-0.0315 0.0243 0.29104 0.29104 0 0 0-0.0315 0.0548c-8e-3 0.0204-0.0172 0.0439-0.0264 0.0709-9e-3 0.027-0.0251 0.0701-0.0447 0.12885-0.0196 0.0587-0.0476 0.14579-0.0841 0.26088a2.8575 2.8575 0 0 1-0.10768 0.28628q-0.10583 0.21934-0.18521 0.2294-0.0794 0.01-0.0963 0.01a0.29845 0.29845 0 0 1-0.22331-0.11165 0.56092 0.56092 0 0 1-0.12964-0.34105q-2e-3 -0.0386-2e-3 -0.0751a1.6097 1.6097 0 0 1 0.0569-0.42016 0.91705 0.91705 0 0 1 0.24765-0.42334 0.41963 0.41963 0 0 1 0.29104-0.11139 0.44979 0.44979 0 0 1 0.29395 0.10769c0.0191 0.019 0.032 0.0286 0.0394 0.0294h0.0153a0.13229 0.13229 0 0 0 0.0447-0.0101 0.18706 0.18706 0 0 1 0.1688 8e-3 0.22437 0.22437 0 0 1 0.11351 0.15425 0.63765 0.63765 0 0 1 0.0101 0.12806 1.4888 1.4888 0 0 1-8e-3 0.15875l-0.0122 0.0984q-8e-3 0.0659-0.0161 0.13229-8e-3 0.0873-0.0204 0.17066a3.1464 3.1464 0 0 0-0.0347 0.38364v0.0669a0.38021 0.38021 0 0 0 0.0122 0.13785 0.0079375 0.0079375 0 0 0 6e-3 2e-3q0.0183 0 0.063-0.10584 0.0204-0.0426 0.0344-0.0751l0.0122-0.0304q0-2e-3 0.0265-0.068 0.0265-0.0659 0.0648-0.15875 0.0386-0.0937 0.0794-0.19368 0.0407-0.10001 0.064-0.15875 0.0447-0.12171 0.0712-0.18045a0.24448 0.24448 0 0 1 0.0458-0.0762 0.065881 0.065881 0 0 1 0.0458-0.0172q0.0691 4e-3 0.0691 0.0587a0.24262 0.24262 0 0 1-0.0132 0.0529q-0.0132 0.0415-0.0315 0.0902-0.0365 0.0974-0.0923 0.26459-0.0558 0.16721-0.0984 0.31062-0.0894 0.29633-0.13599 0.41592-0.0648 0.15425-0.13917 0.18257a0.35137 0.35137 0 0 1-0.11669 0.0283 0.23812 0.23812 0 0 1-0.12382-0.0365 0.39476 0.39476 0 0 1-0.15425-0.23098zm-0.43233-0.558a3.701 3.701 0 0 0 0.19897-0.43842q0.0183-0.0426 0.0458-0.10133 0.0275-0.0587 0.0529-0.10769a0.16986 0.16986 0 0 1 0.0143-0.0265q0.0204-0.0405 0.0365-0.0701c0.0108-0.0196 0.0175-0.032 0.0204-0.0376a0.052917 0.052917 0 0 0 6e-3 -0.0222q0-0.0325-0.0468-0.0587a0.16113 0.16113 0 0 0-0.0738-0.0188 0.2077 0.2077 0 0 0-0.136 0.0608 0.40957 0.40957 0 0 0-0.072 0.1016 1.0171 1.0171 0 0 0-0.0659 0.15029 1.3914 1.3914 0 0 0-0.0609 0.26088 1.7314 1.7314 0 0 0-0.0183 0.22436c0 0.019 0 0.0365 2e-3 0.0529q8e-3 0.0995 0.0405 0.0995h4e-3c3e-3 -3e-3 9e-3 -0.0103 0.0193-0.0233a0.47625 0.47625 0 0 0 0.0315-0.0452zm1.6052 0.26458a0.96996 0.96996 0 0 1-0.0325-0.2577q0-0.0386 2e-3 -0.0812 0.0101-0.1868 0.0344-0.35296a0.37386 0.37386 0 0 1 6e-3 -0.0426 1.561 1.561 0 0 0 0.0146-0.19288 0.2585 0.2585 0 0 0-0.0505-0.19289 0.061648 0.061648 0 0 0-0.0386-0.0222 0.021431 0.021431 0 0 0-0.0161 6e-3 0.22569 0.22569 0 0 0-0.0447 0.0955q-0.0265 0.0852-0.0823 0.21616-0.0558 0.13097-0.0963 0.21008a0.83264 0.83264 0 0 1-0.0955 0.15134 0.070644 0.070644 0 0 1-0.0812 0.0132 0.055562 0.055562 0 0 1-0.0407-0.0669v-4e-3a0.43815 0.43815 0 0 1 0.0376-0.10584q0.0487-0.0955 0.10583-0.23071 0.0572-0.13521 0.10134-0.25057a0.65855 0.65855 0 0 0 0.0436-0.14022 0.096838 0.096838 0 0 0-7e-3 -0.0265q-7e-3 -0.0193-0.0153-0.0397a0.28125 0.28125 0 0 1-0.0243-0.11165 0.26749 0.26749 0 0 1 0.0161-0.0913q0.0347-0.0995 0.10954-0.0995a0.13785 0.13785 0 0 1 0.0609 0.0193 0.25215 0.25215 0 0 1 0.0609 0.0436 0.0889 0.0889 0 0 1 0.0172 0.0222 0.082021 0.082021 0 0 1 7e-3 0.0265 0.39688 0.39688 0 0 1 2e-3 0.0466c0 0.0191 0 0.0368 2e-3 0.0529a0.10927 0.10927 0 0 0 6e-3 0.0333 0.15134 0.15134 0 0 0 0.0691 0.063 0.58976 0.58976 0 0 1 0.24765 0.25373 0.74083 0.74083 0 0 1 0.0648 0.30851v0.01a2.5884 2.5884 0 0 1-0.0283 0.34925q-6e-3 0.0447-0.0101 0.0892c-8e-3 0.0651-0.013 0.11191-0.0146 0.14102-2e-3 0.0291-2e-3 0.0471-2e-3 0.0529a0.19262 0.19262 0 0 0 0.0103 0.0794 0.023548 0.023548 0 0 0 0.0204 0.0122q0.0204 0 0.0466-0.0447 0.069-0.11351 0.13229-0.2466 0.0632-0.13308 0.16563-0.37253 0.0243-0.0529 0.0447-0.0945a0.35851 0.35851 0 0 1 0.0283-0.0529 0.058473 0.058473 0 0 1 0.0426-0.0183h8e-3a0.054769 0.054769 0 0 1 0.0447 0.0283 0.088635 0.088635 0 0 1 8e-3 0.0161 0.03175 0.03175 0 0 1 2e-3 0.0103l-2e-3 0.01a0.12806 0.12806 0 0 1-0.0101 0.0304q-8e-3 0.0204-0.0283 0.077-0.0201 0.0566-0.0447 0.12567a4.908 4.908 0 0 1-0.23945 0.59664q-0.0794 0.13229-0.15425 0.14816a0.58737 0.58737 0 0 1-0.10769 0.0161 0.30057 0.30057 0 0 1-0.15425-0.0426 0.31274 0.31274 0 0 1-0.14525-0.17675zm1.6356 0.28205a0.23019 0.23019 0 0 1-0.068-0.0447 0.4191 0.4191 0 0 1-0.068-0.0751 0.68104 0.68104 0 0 1-0.0937-0.24157 0.74904 0.74904 0 0 0-0.0487-0.20902 0.093133 0.093133 0 0 0-0.0132 0.0265q-0.0111 0.0265-0.0243 0.0609a0.64849 0.64849 0 0 0-0.0217 0.0648 0.63341 0.63341 0 0 1-0.0468 0.10239 0.54716 0.54716 0 0 1-0.0609 0.0945 0.25612 0.25612 0 0 1-0.18891 0.0751h-0.0222a0.34396 0.34396 0 0 1-0.21166-0.0831 0.40614 0.40614 0 0 1-0.11669-0.2069 1.0319 1.0319 0 0 1-0.0235-0.20505 0.95515 0.95515 0 0 1 6e-3 -0.10584 1.0832 1.0832 0 0 1 0.0587-0.26194q0.136-0.36327 0.38761-0.41777a0.18521 0.18521 0 0 1 0.0405-4e-3 0.34105 0.34105 0 0 1 0.0691 8e-3 0.44238 0.44238 0 0 1 0.11562 0.0347 0.12277 0.12277 0 0 0 0.0447 0.0143 0.021696 0.021696 0 0 0 0.01-2e-3q0.0146-8e-3 0.0146-0.0548a4.1677 4.1677 0 0 1 0.0429-0.50271 4.9477 4.9477 0 0 1 0.0852-0.50271q0.0265-0.0974 0.0609-0.11059a0.16192 0.16192 0 0 1 0.0487-0.0132 0.18521 0.18521 0 0 1 0.11351 0.0587 0.11377 0.11377 0 0 1 0.0193 0.0265c6e-3 0.0114 0.0111 0.022 0.0153 0.0315a0.94906 0.94906 0 0 1 8e-3 0.15637v0.0487q-4e-3 0.15875-0.0183 0.37042-0.0283 0.34395-0.0365 0.52678-8e-3 0.18283-8e-3 0.40296v0.0669q0 0.16034 8e-3 0.26776a1.8042 1.8042 0 0 0 0.0286 0.23548q0.0222 0.11986 0.0344 0.12382a0.079375 0.079375 0 0 0 0.0145 4e-3q0.0244 0 0.0627-0.0894 0.0225-0.0447 0.0648-0.16139 0.0423-0.11668 0.0892-0.2495 0.0466-0.1323 0.077-0.23072c0.0122-0.0405 0.0217-0.0701 0.0286-0.0881a0.10795 0.10795 0 0 1 0.0204-0.0376 0.071967 0.071967 0 0 1 0.0265-0.0161 0.073819 0.073819 0 0 1 0.0365-0.0103 0.066675 0.066675 0 0 1 0.0161 2e-3 0.056356 0.056356 0 0 1 0.0365 0.0265 0.0079375 0.0079375 0 0 0 2e-3 6e-3 0.048683 0.048683 0 0 1 5e-3 0.0151 0.093133 0.093133 0 0 1 0 0.0132 0.20902 0.20902 0 0 1-2e-3 0.0265 0.60563 0.60563 0 0 1-0.0183 0.0751q-0.0143 0.0487-0.0405 0.13388-0.0669 0.21696-0.10954 0.34714-0.0426 0.13017-0.0669 0.20082a1.1229 1.1229 0 0 1-0.0415 0.10768 0.43921 0.43921 0 0 1-0.0357 0.063 0.22066 0.22066 0 0 1-0.0598 0.0659 0.25374 0.25374 0 0 1-0.0902 0.0333 0.36671 0.36671 0 0 1-0.0955 0.0146 0.18521 0.18521 0 0 1-0.0624-0.0101zm-0.558-0.47493q0.0145-0.0225 0.0304-0.0529t0.0265-0.0529c7e-3 -0.0161 0.0135-0.0312 0.0204-0.0447l0.0145-0.0283a1.2496 1.2496 0 0 0 0.0569-0.14922q0.0386-0.11457 0.072-0.23231a0.82021 0.82021 0 0 0 0.0333-0.1442 0.073819 0.073819 0 0 0-0.0204-0.0466 0.11139 0.11139 0 0 0-0.0487-0.0344 0.038365 0.038365 0 0 0-0.0122-2e-3q-0.0712 0-0.1524 0.12383a0.79137 0.79137 0 0 0-0.0873 0.25373 1.5094 1.5094 0 0 0-0.0304 0.28205c0 0.0191 0 0.0378 2e-3 0.0569q8e-3 0.12964 0.0405 0.12964 0.0222 0 0.0545-0.0569zm1.2216-1.2483q-0.13229-0.0627-0.14314-0.12779a0.62653 0.62653 0 0 1-0.0111-0.0873 0.17066 0.17066 0 0 1 0.0503-0.12568 0.1225 0.1225 0 0 1 0.0873-0.0344 0.24844 0.24844 0 0 1 0.10954 0.0304 0.18045 0.18045 0 0 1 0.0902 0.068 0.16589 0.16589 0 0 1 0.0132 0.064 0.38232 0.38232 0 0 1-0.0103 0.0794 0.60484 0.60484 0 0 1-0.0265 0.0852 0.13229 0.13229 0 0 1-0.0265 0.0426 0.08255 0.08255 0 0 1-0.0609 0.0243 0.18098 0.18098 0 0 1-0.0722-0.0156zm0.0122 1.5769a0.30903 0.30903 0 0 1-0.18521-0.17251 0.67786 0.67786 0 0 1-0.064-0.24341q-6e-3 -0.11589-6e-3 -0.17675a1.9296 1.9296 0 0 1 0.0103-0.19896c0-0.0122 0-0.0265 2e-3 -0.0405q6e-3 -0.0831 0.0204-0.19183a0.80169 0.80169 0 0 1 0.0497-0.19685 0.18177 0.18177 0 0 1 0.1024-0.11271 0.15081 0.15081 0 0 1 0.0365-4e-3 0.23998 0.23998 0 0 1 0.0812 0.0161 0.22146 0.22146 0 0 1 0.0995 0.063 0.12303 0.12303 0 0 1 0.0204 0.0587c1e-3 0.0204 2e-3 0.0333 2e-3 0.0386a0.38523 0.38523 0 0 1-0.0103 0.0892 1.347 1.347 0 0 0-0.0415 0.23813q-0.0132 0.13891-0.0172 0.24236-4e-3 0.0794-4e-3 0.13785a0.38814 0.38814 0 0 0 0.0222 0.17039 0.033338 0.033338 0 0 0 0.0265 0.0182q0.0243 0 0.0609-0.0529a1.519 1.519 0 0 0 0.11986-0.22834q0.063-0.14314 0.10953-0.26882 0.0569-0.15875 0.11589-0.15875a0.052917 0.052917 0 0 1 0.0265 8e-3 0.051065 0.051065 0 0 1 0.0294 0.0222 0.058208 0.058208 0 0 1 5e-3 0.0222 0.10372 0.10372 0 0 1-6e-3 0.0325 0.65087 0.65087 0 0 1-0.0365 0.10345l-0.0426 0.11563-0.0365 0.0995q-0.0122 0.0304-0.0265 0.0691-0.0225 0.0648-0.0426 0.11986a0.64717 0.64717 0 0 1-0.23812 0.37042 0.20611 0.20611 0 0 1-0.0669 0.0132h-0.0447a0.34687 0.34687 0 0 1-0.0706-6e-3zm1.2644 0.15637a1.1523 1.1523 0 0 1-0.0365-0.29633 1.614 1.614 0 0 1 0.0222-0.26194c3e-3 -0.0164 6e-3 -0.036 0.0101-0.059 3e-3 -0.0175 6e-3 -0.0339 8e-3 -0.0487 3e-3 -0.0148 6e-3 -0.0354 0.0111-0.0577 5e-3 -0.0222 9e-3 -0.0421 0.0132-0.0598q0.0265-0.10345 0.0498-0.204 0.0233-0.10054 0.0352-0.16377a0.63182 0.63182 0 0 0 0.0122-0.077v-2e-3a0.011377 0.011377 0 0 0-8e-3 -2e-3h-6e-3a0.1815 0.1815 0 0 0-0.0243 0.01 0.084138 0.084138 0 0 0-0.0315 0.0243 0.2884 0.2884 0 0 0-0.0315 0.0548c-8e-3 0.0204-0.0172 0.0439-0.0265 0.0709-9e-3 0.027-0.0249 0.0701-0.0447 0.12885-0.0198 0.0587-0.0476 0.14579-0.0841 0.26088a2.8554 2.8554 0 0 1-0.10769 0.28628q-0.10583 0.21934-0.18521 0.22939-0.0794 0.0101-0.0963 0.0101a0.29845 0.29845 0 0 1-0.22331-0.11166 0.56092 0.56092 0 0 1-0.12964-0.34105q-2e-3 -0.0386-2e-3 -0.0751a1.6097 1.6097 0 0 1 0.0569-0.42016 0.91705 0.91705 0 0 1 0.24765-0.42333 0.41936 0.41936 0 0 1 0.29104-0.11165 0.44979 0.44979 0 0 1 0.29422 0.10768q0.0283 0.0283 0.0397 0.0294h0.0151a0.12885 0.12885 0 0 0 0.0447-0.0101 0.18706 0.18706 0 0 1 0.16854 8e-3 0.2241 0.2241 0 0 1 0.11351 0.15425 0.6305 0.6305 0 0 1 0.0101 0.12779 1.5187 1.5187 0 0 1-8e-3 0.15875c-3e-3 0.0217-7e-3 0.0545-0.0122 0.0984-5e-3 0.0439-0.0109 0.0881-0.0164 0.13229q-8e-3 0.0873-0.0204 0.17039a3.1464 3.1464 0 0 0-0.0344 0.38365v0.0669a0.37597 0.37597 0 0 0 0.0122 0.13785 0.0087312 0.0087312 0 0 0 6e-3 2e-3c0.0122 0 0.0331-0.0352 0.063-0.10583 0.0135-0.0286 0.0251-0.0529 0.0344-0.0751l0.0122-0.0304q0-2e-3 0.0265-0.068 0.0265-0.0659 0.0648-0.15875 0.0386-0.0937 0.0794-0.19394 0.0407-0.10027 0.0643-0.15875 0.0447-0.1217 0.0709-0.18044a0.24844 0.24844 0 0 1 0.0458-0.0762 0.066146 0.066146 0 0 1 0.0458-0.0172q0.069 4e-3 0.069 0.0587a0.24236 0.24236 0 0 1-0.0132 0.0529q-0.0132 0.0415-0.0315 0.0902-0.0365 0.0974-0.0923 0.26458-0.0558 0.16722-0.0984 0.31062-0.0892 0.29633-0.13599 0.41593-0.0648 0.15425-0.13917 0.18256a0.35084 0.35084 0 0 1-0.11668 0.0283 0.23812 0.23812 0 0 1-0.12383-0.0365 0.39449 0.39449 0 0 1-0.15769-0.22755zm-0.43233-0.55801a3.6968 3.6968 0 0 0 0.19897-0.43841q0.0183-0.0426 0.0458-0.10134 0.0275-0.0587 0.0529-0.10768a0.17304 0.17304 0 0 1 0.0145-0.0265q0.0204-0.0405 0.0365-0.0701t0.0204-0.0376a0.052917 0.052917 0 0 0 6e-3 -0.0222c0-0.0217-0.0156-0.0413-0.0468-0.0587a0.16192 0.16192 0 0 0-0.0733-0.0185 0.2077 0.2077 0 0 0-0.13599 0.0609 0.40984 0.40984 0 0 0-0.072 0.1016 1.016 1.016 0 0 0-0.0659 0.15028 1.3906 1.3906 0 0 0-0.0609 0.26088 1.733 1.733 0 0 0-0.0183 0.22436c0 0.019 0 0.0365 2e-3 0.0529q8e-3 0.0995 0.0405 0.0995h4e-3c3e-3 -3e-3 9e-3 -0.0103 0.0193-0.0233a0.47625 0.47625 0 0 0 0.0315-0.0452z" fill="#fff"/>
  <path d="m100.25 125.29 0.11483-0.0958v-1.3973s-1.7415-1.225-3.0623 0.53578a2.4842 2.4842 0 0 0-0.3646 1.2824 2.5762 2.5762 0 0 0 0.49768 1.5891 6.9435 6.9435 0 0 0 1.0528 1.0528c0.53605 0.40191 0.59346 0.86149 0.4019 1.1869-0.19156 0.32544-0.86148 0.59346-1.723-0.17224l-0.15319 0.0577v1.6081s0.34396 0.4019 1.4168 0.4019c1.0729 0 1.474-0.42122 1.742-0.72761 0.26803-0.30638 0.49768-0.70828 0.517-1.57 0.0193-0.86175-0.21167-1.2248-0.84244-1.8568-0.63077-0.63209-0.93795-0.92604-0.93795-0.92604s-0.55562-0.50879-0.17224-1.0829 1.5124 0.11483 1.5124 0.11483" fill="#fff"/>
  <path d="m103.29 126.8c0.24368 0 0.9816 0.019 0.9816-1.0528a0.83132 0.83132 0 0 0-0.97631-0.9189zm-1.6404-3.2165 0.0958-0.0958h1.6846s2.4313-0.0958 2.4313 2.3164c0 2.4122-2.0886 2.2971-2.5651 2.2971v3.1586h-1.5547l-0.10372-0.0958z" fill="#fff"/>
  <path d="m106.85 123.57 0.0865-0.10345h1.5161l0.0841 0.12514v7.5726l-0.0918 0.10875h-1.5081l-0.11218-0.0937z" fill="#fff"/>
 </g>
</svg>
